# xmcd
#
# Track frame offsets:
#	150
#	12706
#	25580
#	35746
#	46857
#	58783
#	71250
#	81756
#	92567
#	104636
#	114673
#	126249
#	133963
#	142328
#	155014
#	165280
#	176198
#	184600
#
# Disc length: 2619 seconds
#
# Revision: 1
# Processed by: cddbd v1.5.2PL0 Copyright (c) Steve Scherf et al.
# Submitted via: audiograbber 1.83.01
#
DISCID=030a3912
DTITLE=Johnny Cash - Country Roads CD 1
DYEAR=2007
DGENRE=Country
TTITLE0=I Walk the Line
TTITLE1=Folsom Prison Blues
TTITLE2=Get Rhythm
TTITLE3=Cry! Cry! Cry!
TTITLE4=So Doggone Lonesome
TTITLE5=Give My Love To Rose
TTITLE6=There You Go
TTITLE7=Train of Love
TTITLE8=Home of the Blues
TTITLE9=Ballad of a Teenage Queen
TTITLE10=Big River
TTITLE11=Come in Stranger
TTITLE12=Guess Things Happen that Way
TTITLE13=Next in Line
TTITLE14=The Ways of a Woman in Love
TTITLE15=I Heard that Lonesome Whistle
TTITLE16=The Wreck of the old 97
TTITLE17=You're The Nearest Thing to Heaven
EXTD=
EXTT0=
EXTT1=
EXTT2=
EXTT3=
EXTT4=
EXTT5=
EXTT6=
EXTT7=
EXTT8=
EXTT9=
EXTT10=
EXTT11=
EXTT12=
EXTT13=
EXTT14=
EXTT15=
EXTT16=
EXTT17=
PLAYORDER=
